<svg width="16" height="17" viewBox="0 0 16 17" fill="none" xmlns="http://www.w3.org/2000/svg">
<g clip-path="url(#clip0_56_25)">
<path d="M11.3987 12.3122C12.0749 12.2001 12.4789 11.4326 12.2668 10.8009L14.6154 8.50721C15.3414 7.91564 16.3091 8.61317 15.9051 9.47789L12.4623 13.7274L12.1652 13.8956C10.5031 14.0185 8.68815 13.7716 7.04376 13.9079C6.37532 13.9635 5.88994 14.2567 5.43515 14.7294L2.51352 11.8164C3.1581 10.3014 4.94977 9.48612 6.54956 9.92079C6.9556 10.0314 7.30875 10.304 7.72257 10.3519C8.78927 10.4753 10.0613 10.2593 11.1415 10.3555C11.7736 10.4115 12.1937 10.9285 11.9178 11.5412C11.8333 11.7289 11.4931 12.0036 11.295 12.0036H8.07986C7.97719 12.0036 7.97667 12.3122 8.07986 12.3122H11.3987Z" fill="#BEC3C8"/>
<path d="M9.54845 2.29321C11.0357 2.25875 12.0148 3.35288 12.7107 4.52881C13.8189 6.40124 14.2903 8.64043 11.7244 9.44599C10.1687 9.93467 6.42458 9.92953 5.80956 8.03138C5.17223 6.06482 7.31289 2.34517 9.54845 2.29321ZM9.87101 7.58179C10.6411 7.51955 10.9258 6.50515 10.3377 6.00926C10.0515 5.76801 9.21916 5.60031 9.36021 5.14661C9.51319 4.65432 10.4124 5.43725 10.4933 4.87603C10.5493 4.48817 9.95346 4.48251 9.89175 4.39404C9.80878 4.27469 9.95242 3.65844 9.42815 4.03035C9.42037 4.48611 9.37007 4.35083 9.09419 4.52212C8.6228 4.81533 8.44597 5.43159 8.84994 5.86471C9.10196 6.13478 10.3382 6.48611 9.84508 6.96502C9.49089 7.30916 8.97595 6.67901 8.6897 6.97583C8.35004 7.32819 9.14034 7.64609 9.39703 7.6358C9.34103 7.98097 9.52823 8.27161 9.84248 7.99177L9.86997 7.58179H9.87101Z" fill="#BEC3C8"/>
<path d="M0.412787 12.8601C0.63681 12.6188 1.10197 12.073 1.35503 11.9172C1.59098 11.7716 1.88449 11.7387 2.12718 11.8904L5.04518 14.7572C5.27387 15.0226 5.32366 15.3169 5.14268 15.6229C5.08045 15.7284 3.94789 16.858 3.84988 16.9126C3.63778 17.0304 3.34946 17.0329 3.14358 16.9012L0.149353 13.9547C-0.119786 13.555 0.00622734 13.287 0.276922 12.9547C0.312184 12.9115 0.378561 12.8966 0.412787 12.8601ZM2.12563 13.6852C2.48396 13.2968 1.93479 12.7212 1.51579 13.0545C1.03559 13.4367 1.72529 14.1193 2.12563 13.6852Z" fill="#BEC3C8"/>
<path d="M10.4917 1.25257C10.6784 1.06327 10.7417 0.81173 11.0476 0.750002C11.268 0.705249 11.8571 0.791668 11.6357 1.07562C11.2769 1.35648 10.8589 1.68982 10.6935 2.12294C9.9405 1.90381 9.2591 1.96348 8.50406 2.12037C8.24944 1.66204 7.25482 0.810187 7.74176 0.299899C8.07935 -0.0540106 8.69697 0.422327 9.16887 0.378088C9.60447 0.336936 10.0795 -0.318928 10.4923 0.197018C10.7733 0.548356 10.5457 0.871401 10.4917 1.25257Z" fill="#BEC3C8"/>
</g>
<defs>
<clipPath id="clip0_56_25">
<rect width="16" height="17" fill="white"/>
</clipPath>
</defs>
</svg>
