<svg width="20" height="20" viewBox="0 0 20 20" fill="none" xmlns="http://www.w3.org/2000/svg">
<circle cx="10" cy="10" r="10" fill="#2C3A43"/>
<path d="M12.7014 6.75L12.0535 6.99039C12.1263 7.22577 12.1544 7.47056 12.1747 7.71639L12.1741 10.8177L12.1851 10.8405C12.3681 10.9285 12.5577 11.0062 12.7383 11.0995C12.9422 11.2048 13.0967 11.2882 13.1976 11.5134C13.2851 11.7084 13.3616 11.9668 13.4314 12.1737C13.6429 12.8025 13.8939 13.5699 13.9742 14.2284C14.0025 14.4608 14.0697 14.9711 13.7509 14.9995H6.23747C5.90637 14.9688 6.00711 14.3494 6.04182 14.1207C6.13814 13.4861 6.35786 12.7971 6.56174 12.19C6.63939 11.9588 6.77885 11.4699 6.93497 11.3087C7.19523 11.0861 7.53294 10.9952 7.82551 10.8267L7.82471 7.70468C7.84317 7.46199 7.88209 7.22368 7.94591 6.99018C7.62625 6.87229 7.30058 6.76421 6.98473 6.63565C6.90708 6.60409 6.81537 6.58381 6.76862 6.50605C6.68555 6.36746 6.74574 6.21089 6.88862 6.15758C7.87708 5.81999 8.85169 5.37536 9.84016 5.04508C9.89193 5.02773 9.96136 4.99637 10.0145 5.00034C10.0549 5.00327 10.1179 5.03149 10.159 5.04508C10.6009 5.19099 11.0594 5.38372 11.499 5.54844C12.0595 5.75853 12.6219 5.97091 13.1774 6.19124C13.3562 6.35366 13.2508 6.58925 13.0325 6.62583L13.0413 6.9166C13.0901 6.92308 13.1342 6.93061 13.1493 6.98705C13.1559 7.17999 13.2107 7.39008 13.2179 7.58009C13.2203 7.64489 13.1868 7.69235 13.1244 7.69987C13.019 7.71283 12.7122 7.71346 12.6075 7.70008C12.52 7.689 12.5224 7.60559 12.5256 7.53369C12.532 7.39677 12.5571 7.14216 12.583 7.01004C12.595 6.94838 12.639 6.90908 12.7012 6.92162V6.75H12.7014ZM10.4893 10.5877C10.4785 10.576 10.4492 10.5706 10.4662 10.5484C10.9661 10.292 11.2783 9.74469 11.4768 9.22146C11.5227 9.10043 11.5743 8.95494 11.606 8.82994C11.6126 8.80422 11.6339 8.74966 11.6204 8.72918C11.1529 8.51596 10.7451 8.12903 10.4225 7.72287C10.2929 7.95573 10.0065 8.06527 9.76892 8.14032C9.52973 8.21599 9.26265 8.26678 9.01483 8.30441C8.78126 8.33995 8.54428 8.36608 8.3083 8.37486C8.27459 8.40998 8.43131 9.01577 8.459 9.10482C8.63759 9.67863 8.96748 10.308 9.52752 10.5491L8.90146 11.2238C9.43522 11.4624 9.85962 11.9697 9.98885 12.5627C10.0177 12.5661 10.0063 12.5623 10.0109 12.5458C10.0328 12.4697 10.0513 12.3934 10.0791 12.3192C10.263 11.8324 10.6362 11.4291 11.0979 11.2238L11.0871 11.1952C10.8918 10.9889 10.6819 10.7964 10.4891 10.588L10.4893 10.5877Z" fill="white"/>
</svg>
