<svg width="21" height="21" viewBox="0 0 21 21" fill="none" xmlns="http://www.w3.org/2000/svg">
<circle cx="10.5" cy="10.5" r="10.5" fill="#2C3A43"/>
<g clip-path="url(#clip0_319_733)">
<path d="M12.8366 12.9668C13.3015 12.8942 13.5792 12.3976 13.4334 11.9889L15.0481 10.5047C15.5472 10.1219 16.2125 10.5733 15.9347 11.1328L13.5678 13.8825L13.3635 13.9913C12.2209 14.0709 10.9731 13.9111 9.84257 13.9993C9.38302 14.0352 9.04931 14.225 8.73665 14.5309L6.72803 12.6459C7.17118 11.6657 8.40295 11.1381 9.50281 11.4194C9.78196 11.491 10.0247 11.6674 10.3092 11.6983C11.0426 11.7782 11.9171 11.6384 12.6598 11.7006C13.0944 11.7369 13.3831 12.0714 13.1935 12.4679C13.1354 12.5894 12.9015 12.7671 12.7653 12.7671H10.5549C10.4843 12.7671 10.4839 12.9668 10.5549 12.9668H12.8366Z" fill="white"/>
<path d="M11.5645 6.48391C12.587 6.46161 13.2601 7.16958 13.7386 7.93047C14.5005 9.14205 14.8245 10.5909 13.0605 11.1122C11.9909 11.4284 9.41689 11.4251 8.99406 10.1968C8.5559 8.92436 10.0276 6.51753 11.5645 6.48391ZM11.7863 9.90593C12.3157 9.86566 12.5115 9.20928 12.1072 8.88841C11.9104 8.73231 11.3382 8.6238 11.4351 8.33023C11.5403 8.01169 12.1585 8.51829 12.2141 8.15515C12.2526 7.90418 11.843 7.90052 11.8006 7.84327C11.7435 7.76605 11.8423 7.36729 11.4818 7.60794C11.4765 7.90285 11.4419 7.81531 11.2522 7.92615C10.9282 8.11587 10.8066 8.51462 11.0843 8.79488C11.2576 8.96963 12.1075 9.19697 11.7685 9.50685C11.525 9.72952 11.171 9.32178 10.9742 9.51384C10.7406 9.74184 11.284 9.94754 11.4604 9.94088C11.4219 10.1642 11.5506 10.3523 11.7667 10.1712L11.7856 9.90593H11.7863Z" fill="white"/>
<path d="M5.28379 13.3213C5.43781 13.1652 5.75761 12.812 5.93159 12.7112C6.0938 12.617 6.29559 12.5957 6.46244 12.6939L8.46857 14.5488C8.62579 14.7206 8.66002 14.911 8.53559 15.109C8.49281 15.1772 7.71417 15.9082 7.64679 15.9435C7.50098 16.0197 7.30275 16.0213 7.16122 15.9361L5.10268 14.0296C4.91765 13.771 5.00428 13.5975 5.19039 13.3825C5.21463 13.3546 5.26026 13.3449 5.28379 13.3213ZM6.46137 13.8552C6.70773 13.6039 6.33017 13.2314 6.04211 13.4471C5.71197 13.6944 6.18614 14.1361 6.46137 13.8552Z" fill="white"/>
<path d="M12.2131 5.81048C12.3414 5.68799 12.3849 5.52523 12.5953 5.48529C12.7468 5.45633 13.1518 5.51225 12.9996 5.69598C12.7528 5.87771 12.4655 6.0934 12.3518 6.37366C11.8341 6.23187 11.3656 6.27048 10.8465 6.372C10.6715 6.07543 9.9877 5.52423 10.3225 5.19404C10.5546 4.96504 10.9792 5.27326 11.3036 5.24464C11.6031 5.21801 11.9297 4.79362 12.2134 5.12747C12.4067 5.35481 12.2502 5.56384 12.2131 5.81048Z" fill="white"/>
</g>
<defs>
<clipPath id="clip0_319_733">
<rect width="11" height="11" fill="white" transform="translate(5 5)"/>
</clipPath>
</defs>
</svg>
