<svg width="11" height="11" viewBox="0 0 11 11" fill="none" xmlns="http://www.w3.org/2000/svg">
<path fill-rule="evenodd" clip-rule="evenodd" d="M4.44852 5.03448C3.74126 4.65766 3.25931 3.91249 3.25931 3.05571C3.25931 1.81877 4.26314 0.814937 5.50008 0.814937C6.73691 0.814937 7.74075 1.81877 7.74075 3.05571C7.74075 3.91246 7.25879 4.65763 6.55153 5.03448C7.18308 5.21289 7.7644 5.5502 8.23696 6.02245C8.96262 6.74843 9.37039 7.73275 9.37039 8.75944V9.16689C9.37039 9.7295 8.91452 10.1854 8.3519 10.1854H2.64815C2.08554 10.1854 1.62967 9.7295 1.62967 9.16689V8.75944C1.62967 7.73285 2.03754 6.74853 2.76309 6.02245C3.23565 5.5502 3.81705 5.2129 4.44852 5.03448Z" fill="#3A4D54" fill-opacity="0.3"/>
<path fill-rule="evenodd" clip-rule="evenodd" d="M5.50016 5.29614C4.58185 5.29614 3.70103 5.66124 3.05157 6.31059C2.40222 6.96004 2.03723 7.84086 2.03723 8.75907V9.16653C2.03723 9.50383 2.31096 9.77766 2.64826 9.77766H8.35201C8.68932 9.77766 8.96314 9.50383 8.96314 9.16653V8.75907C8.96314 7.84086 8.59805 6.96004 7.9487 6.31059C7.29924 5.66124 6.41842 5.29614 5.50021 5.29614H5.50016Z" fill="#3A4D54" fill-opacity="0.3"/>
<path fill-rule="evenodd" clip-rule="evenodd" d="M7.33353 3.05573C7.33353 4.06826 6.51264 4.88904 5.50021 4.88904C4.48768 4.88904 3.66679 4.06826 3.66679 3.05573C3.66679 2.0432 4.48768 1.22241 5.50021 1.22241C6.51264 1.22241 7.33353 2.0432 7.33353 3.05573Z" fill="#3A4D54" fill-opacity="0.3"/>
</svg>
