<svg width="22" height="21" viewBox="0 0 22 21" fill="none" xmlns="http://www.w3.org/2000/svg">
<ellipse cx="10.8058" cy="10.5" rx="10.8058" ry="10.5" fill="#2C3A43"/>
<path fill-rule="evenodd" clip-rule="evenodd" d="M9.57809 10.0345C8.85023 9.65766 8.35424 8.91249 8.35424 8.05571C8.35424 6.81877 9.38731 5.81494 10.6603 5.81494C11.9331 5.81494 12.9662 6.81877 12.9662 8.05571C12.9662 8.91246 12.4702 9.65763 11.7423 10.0345C12.3923 10.2129 12.9905 10.5502 13.4769 11.0225C14.2237 11.7484 14.6433 12.7328 14.6433 13.7594V14.1669C14.6433 14.7295 14.1742 15.1854 13.5952 15.1854H7.72528C7.14628 15.1854 6.67713 14.7295 6.67713 14.1669V13.7594C6.67713 12.7329 7.09688 11.7485 7.84357 11.0225C8.3299 10.5502 8.92823 10.2129 9.57809 10.0345Z" fill="white"/>
<path fill-rule="evenodd" clip-rule="evenodd" d="M10.6604 10.2961C9.7153 10.2961 8.80883 10.6612 8.14046 11.3105C7.4722 11.96 7.09657 12.8408 7.09657 13.759V14.1665C7.09657 14.5038 7.37827 14.7776 7.7254 14.7776H13.5953C13.9424 14.7776 14.2242 14.5038 14.2242 14.1665V13.759C14.2242 12.8408 13.8485 11.96 13.1802 11.3105C12.5118 10.6612 11.6054 10.2961 10.6604 10.2961H10.6604Z" fill="white"/>
<path fill-rule="evenodd" clip-rule="evenodd" d="M12.5471 8.05568C12.5471 9.06821 11.7023 9.889 10.6604 9.889C9.61839 9.889 8.77359 9.06821 8.77359 8.05568C8.77359 7.04315 9.61839 6.22237 10.6604 6.22237C11.7023 6.22237 12.5471 7.04315 12.5471 8.05568Z" fill="white"/>
</svg>
