<svg width="15" height="13" viewBox="0 0 15 13" fill="none" xmlns="http://www.w3.org/2000/svg">
<path d="M13.214 0.000107573L13.214 9.75023L8.92854 9.75023C8.49784 9.75023 8.13716 9.94692 7.85709 10.2016L7.85723 1.08364C7.85723 1.02764 7.96661 0.681283 8.17525 0.429018C8.3839 0.17689 8.65445 0.000214356 8.92857 0.00021438L13.214 0.000107573ZM6.07145 0.000106948C6.34573 0.000106972 6.61611 0.176638 6.82477 0.42891C7.03355 0.681179 7.14293 1.02752 7.14293 1.08353L7.14293 10.2015C6.86284 9.94682 6.50218 9.75013 6.07147 9.75013L1.78601 9.75012L1.78601 -1.1552e-06L6.07145 0.000106948ZM12.1429 1.08349L10.0001 1.08349L10.0001 2.52795L12.1429 2.52795L12.1429 1.08349ZM6.0548 1.08349L3.91199 1.08349L3.91199 2.52795L6.0548 2.52795L6.0548 1.08349ZM15 1.44453L15 11.5555L8.92854 11.5555C8.09619 11.5555 7.5 12.5589 7.5 13C7.5 12.5589 6.9037 11.5555 6.07145 11.5555L-1.01022e-06 11.5555L-1.26285e-07 1.44453L1.07145 1.44453L1.07145 10.1113C1.07145 10.3003 1.24161 10.4723 1.42865 10.4724L6.42865 10.4724C6.70292 10.4724 6.97331 10.649 7.18197 10.9012C7.39061 11.1535 7.49999 11.4997 7.49999 11.5557C7.49999 11.4997 7.6095 11.1535 7.81815 10.9012C8.02679 10.649 8.2972 10.4724 8.57146 10.4724L13.5715 10.4724C13.7585 10.4724 13.9285 10.3004 13.9287 10.1113L13.9285 1.44453L15 1.44453ZM12.0146 3.43075C12.0091 3.43061 9.10729 3.43075 9.10729 3.43075C8.91858 3.42809 8.74456 3.60112 8.74456 3.79193C8.74456 3.98273 8.91859 4.15575 9.10729 4.1531L11.9643 4.15296C12.1514 4.16626 12.3307 4.00345 12.3438 3.81432C12.357 3.62533 12.2017 3.44405 12.0146 3.43075ZM5.92649 3.43075C5.92095 3.43061 3.01917 3.43075 3.01917 3.43075C2.83047 3.42809 2.65645 3.60112 2.65645 3.79193C2.65645 3.98273 2.83048 4.15575 3.01917 4.1531L5.87623 4.1531C6.06327 4.1664 6.24257 4.00359 6.25572 3.8146C6.26874 3.62533 6.1134 3.44403 5.92635 3.43074L5.92649 3.43075ZM12.1429 5.59742L10.0001 5.59742L10.0001 7.04187L12.1429 7.04187L12.1429 5.59742ZM6.05479 5.59742L3.91199 5.59742L3.91199 7.04187L6.05479 7.04187L6.05479 5.59742ZM12.0142 7.94467C12.0087 7.94439 9.10693 7.94453 9.10693 7.94453C8.91822 7.94187 8.7442 8.1149 8.7442 8.30571C8.7442 8.49651 8.91824 8.66954 9.10693 8.66688L11.964 8.66674C12.151 8.68018 12.3303 8.51737 12.3435 8.32824C12.3566 8.13912 12.2013 7.95782 12.0142 7.94452L12.0142 7.94467ZM5.92613 7.94467C5.9206 7.94453 3.01882 7.94467 3.01882 7.94467C2.83011 7.94201 2.65609 8.11504 2.65609 8.30585C2.65609 8.49665 2.83013 8.85026 3.01882 8.84747L5.87588 8.84747C6.06292 8.86077 6.24222 8.51751 6.25537 8.32839C6.26838 8.13912 6.11304 7.95797 5.92599 7.94453L5.92613 7.94467Z" fill="#BEC3C8"/>
</svg>
