<svg width="13" height="16" viewBox="0 0 13 16" fill="none" xmlns="http://www.w3.org/2000/svg">
<g clip-path="url(#clip0_56_31)">
<path d="M10.8895 2.8002L9.83663 3.18483C9.95499 3.56143 10.0006 3.95309 10.0336 4.34642L10.0326 9.30849L10.0505 9.34495C10.3479 9.48576 10.6561 9.61018 10.9495 9.75935C11.2808 9.92792 11.5319 10.0614 11.6959 10.4216C11.8381 10.7336 11.9623 11.147 12.0758 11.4782C12.4195 12.4842 12.8274 13.712 12.9578 14.7656C13.0038 15.1375 13.113 15.9539 12.5949 15.9994H0.38564C-0.152386 15.9502 0.0113046 14.9592 0.0677158 14.5933C0.224232 13.5779 0.581286 12.4755 0.912579 11.5042C1.03877 11.1343 1.26539 10.352 1.51908 10.0941C1.942 9.73794 2.49079 9.59245 2.96621 9.32288L2.9649 4.32769C2.9949 3.93937 3.05816 3.55809 3.16185 3.18449C2.64241 2.99586 2.11319 2.82294 1.59995 2.61725C1.47376 2.56674 1.32474 2.5343 1.24876 2.40988C1.11377 2.18813 1.21159 1.93762 1.44376 1.85233C3.05001 1.31218 4.63376 0.600774 6.24001 0.072324C6.32414 0.0445637 6.43696 -0.00560567 6.52337 0.000749114C6.58891 0.00543158 6.6913 0.050584 6.75814 0.072324C7.47616 0.305779 8.22125 0.614153 8.93568 0.877709C9.84641 1.21384 10.7604 1.55366 11.663 1.90618C11.9535 2.16606 11.7823 2.543 11.4276 2.60153L11.4419 3.06676C11.5211 3.07713 11.5929 3.08917 11.6173 3.17948C11.6281 3.48819 11.7171 3.82432 11.7288 4.12835C11.7328 4.23203 11.6783 4.30795 11.5769 4.31999C11.4057 4.34073 10.9071 4.34173 10.7369 4.32033C10.5948 4.3026 10.5987 4.16915 10.6039 4.0541C10.6143 3.83502 10.6551 3.42765 10.6971 3.21627C10.7167 3.1176 10.7881 3.05472 10.8892 3.07479V2.8002H10.8895ZM7.29487 8.94059C7.27726 8.92186 7.22965 8.91316 7.25737 8.87771C8.06962 8.46732 8.577 7.5917 8.89949 6.75454C8.97416 6.56089 9.05796 6.3281 9.10948 6.12809C9.12024 6.08696 9.1548 5.99966 9.13296 5.96688C8.3732 5.62573 7.71061 5.00664 7.18628 4.35678C6.97564 4.72937 6.51033 4.90463 6.12425 5.0247C5.73557 5.14578 5.30156 5.22705 4.89886 5.28726C4.51931 5.34412 4.13421 5.38592 3.75074 5.39997C3.69596 5.45616 3.95063 6.42543 3.99563 6.56791C4.28584 7.48601 4.8219 8.49308 5.73198 8.87871L4.71463 9.95835C5.58199 10.34 6.27164 11.1517 6.48163 12.1006C6.52859 12.1059 6.51 12.0999 6.5175 12.0735C6.55304 11.9517 6.58304 11.8297 6.62837 11.7109C6.92705 10.932 7.53355 10.2868 8.28385 9.95835L8.26625 9.91253C7.94897 9.58242 7.6079 9.27438 7.29454 8.94092L7.29487 8.94059Z" fill="#BEC3C8"/>
</g>
<defs>
<clipPath id="clip0_56_31">
<rect width="13" height="16" fill="white"/>
</clipPath>
</defs>
</svg>
