<svg width="20" height="20" viewBox="0 0 20 20" fill="none" xmlns="http://www.w3.org/2000/svg">
<circle cx="10" cy="10" r="10" fill="#2C3A43"/>
<path d="M14.5712 5.00008L14.5712 12.5002L11.1428 12.5002C10.7983 12.5002 10.5097 12.6515 10.2857 12.8474L10.2858 5.83357C10.2858 5.79049 10.3733 5.52406 10.5402 5.33001C10.7071 5.13607 10.9236 5.00016 11.1429 5.00016L14.5712 5.00008ZM8.85716 5.00008C9.07658 5.00008 9.29289 5.13588 9.45981 5.32993C9.62684 5.52398 9.71434 5.7904 9.71434 5.83348L9.71434 12.8473C9.49028 12.6514 9.20175 12.5001 8.85718 12.5001L5.42881 12.5001L5.42881 5L8.85716 5.00008ZM13.7143 5.83346L12.0001 5.83346L12.0001 6.94458L13.7143 6.94458L13.7143 5.83346ZM8.84384 5.83346L7.1296 5.83346L7.1296 6.94458L8.84384 6.94458L8.84384 5.83346ZM16 6.11118L16 13.8889L11.1428 13.8889C10.477 13.8889 10 14.6607 10 15C10 14.6607 9.52296 13.8889 8.85716 13.8889L4 13.8889L4 6.11117L4.85716 6.11117L4.85716 12.7779C4.85716 12.9233 4.99329 13.0556 5.14292 13.0557L9.14292 13.0557C9.36234 13.0557 9.57865 13.1915 9.74557 13.3856C9.91249 13.5796 9.99999 13.8459 9.99999 13.889C9.99999 13.8459 10.0876 13.5796 10.2545 13.3856C10.4214 13.1915 10.6378 13.0557 10.8572 13.0557L14.8572 13.0557C15.0068 13.0557 15.1428 12.9234 15.1429 12.7779L15.1428 6.11118L16 6.11118ZM13.6117 7.63904C13.6073 7.63893 11.2858 7.63904 11.2858 7.63904C11.1349 7.63699 10.9956 7.77009 10.9956 7.91687C10.9956 8.06364 11.1349 8.19673 11.2858 8.19469L13.5715 8.19459C13.7211 8.20482 13.8645 8.07958 13.8751 7.93409C13.8856 7.78872 13.7613 7.64927 13.6117 7.63904ZM8.74119 7.63904C8.73676 7.63893 6.41534 7.63904 6.41534 7.63904C6.26437 7.63699 6.12516 7.77009 6.12516 7.91687C6.12516 8.06364 6.26439 8.19673 6.41534 8.19469L8.70098 8.19469C8.85062 8.20492 8.99406 8.07968 9.00458 7.93431C9.01499 7.78872 8.89072 7.64926 8.74108 7.63903L8.74119 7.63904ZM13.7143 9.3057L12.0001 9.3057L12.0001 10.4168L13.7143 10.4168L13.7143 9.3057ZM8.84384 9.3057L7.1296 9.3057L7.1296 10.4168L8.84384 10.4168L8.84384 9.3057ZM13.6114 11.1113C13.607 11.1111 11.2855 11.1112 11.2855 11.1112C11.1346 11.1091 10.9954 11.2422 10.9954 11.389C10.9954 11.5358 11.1346 11.6689 11.2855 11.6668L13.5712 11.6667C13.7208 11.6771 13.8643 11.5518 13.8748 11.4063C13.8853 11.2609 13.761 11.1214 13.6114 11.1112L13.6114 11.1113ZM8.74091 11.1113C8.73648 11.1112 6.41506 11.1113 6.41506 11.1113C6.26409 11.1092 6.12487 11.2423 6.12487 11.3891C6.12487 11.5359 6.2641 11.8079 6.41506 11.8057L8.7007 11.8057C8.85034 11.816 8.99378 11.5519 9.0043 11.4065C9.01471 11.2609 8.89043 11.1215 8.7408 11.1112L8.74091 11.1113Z" fill="white"/>
</svg>
