<svg width="21" height="21" viewBox="0 0 21 21" fill="none" xmlns="http://www.w3.org/2000/svg">
<circle cx="10.5" cy="10.5" r="10.5" fill="#2C3A43"/>
<path d="M12.7704 6.00438C11.8529 6.051 11.1169 6.46605 10.5652 7.11594C10.5363 7.1513 10.4837 7.15697 10.4477 7.12859C10.4429 7.12487 10.4385 7.12059 10.4347 7.11594C9.84862 6.4254 9.05429 6 8.05556 6C6.24968 6 5 7.24413 5 8.91108C5 10.9145 6.75941 12.8899 10.1849 14.914C10.3788 15.0287 10.6213 15.0287 10.8151 14.914C14.2407 12.8899 16 10.9147 16 8.91108C16 7.24408 14.7502 6 12.9444 6L12.7704 6.00438Z" fill="white"/>
</svg>
