<svg width="12" height="10" viewBox="0 0 12 10" fill="none" xmlns="http://www.w3.org/2000/svg">
<path d="M8.47675 0.00486969C7.47593 0.0566614 6.67296 0.517838 6.07116 1.23993C6.03963 1.27922 5.98226 1.28552 5.94297 1.25399C5.9377 1.24986 5.93294 1.2451 5.92881 1.23993C5.2894 0.472663 4.42287 0 3.33333 0C1.36329 0 0 1.38237 0 3.23454C0 5.46058 1.91936 7.65549 5.65621 9.90448C5.86773 10.0318 6.13227 10.0318 6.34379 9.90448C10.0807 7.65549 12 5.46076 12 3.23454C12 1.38231 10.6366 0 8.66667 0L8.47675 0.00486969Z" fill="#BEC3C8"/>
</svg>
